<?xml version="1.0" encoding="utf-8"?>
<!-- Generator: Adobe Illustrator 26.1.0, SVG Export Plug-In . SVG Version: 6.00 Build 0)  -->
<svg version="1.1" id="Layer_1" xmlns="http://www.w3.org/2000/svg" xmlns:xlink="http://www.w3.org/1999/xlink" x="0px" y="0px"
	 viewBox="0 0 512 512" style="enable-background:new 0 0 512 512;" xml:space="preserve">
<style type="text/css">
	.st0{fill:#FFFFFF;}
</style>
<path class="st0" d="M96,32H32C14.3,32,0,46.4,0,63.1v223.1c0,17.7,14.3,31.1,32,31.1h64c17.7,0,32-14.3,32-31.1V64
	C128,46.4,113.7,32,96,32z M467.3,240.2c7.8-8.5,12.7-19.8,12.7-32.3c0-23.5-16.9-42.9-39.1-47.1c4.4-7.2,7.1-15.7,7.1-25.7
	c0-21.3-14-39.2-33.2-45.4c0.8-2.6,1.2-6.1,1.2-9.7c0-26.5-21.5-48-48-48h-58.7c-34.6,0-68.3,11.2-96,32l-34.1,25.6
	c-12.1,9.1-19.2,23.3-19.2,37.5l0.1,160c0,0,0,0,0,0c0.1,14,6.1,27.9,17.9,37.4l16.3,13C276.2,403.9,239.4,480,302.5,480
	c31,0,49.5-24.5,49.5-48.1c0-15.1-11.8-58.1-34.5-96H464c26.5,0,48-21.5,48-48C512,262.5,492.2,241.9,467.3,240.2z"/>
</svg>
